<svg xmlns="http://www.w3.org/2000/svg" viewBox="0 0 320 255"><path d="M0 0h320v255.4H0z" fill="#2b373e"/><linearGradient id="A" gradientUnits="userSpaceOnUse" x1="0" y1="100.319" x2="220.707" y2="100.319"><stop offset=".129" stop-color="#2b373e"/><stop offset=".283" stop-color="#2d3940"/><stop offset="1" stop-color="#313f47"/></linearGradient><path d="M129.7 0h91L35.4 200.6 0 143z" fill="url(#A)"/><linearGradient id="B" gradientUnits="userSpaceOnUse" x1="0" y1="86.5" x2="160.081" y2="86.5"><stop offset=".129" stop-color="#2b373e"/><stop offset=".283" stop-color="#2d3940"/><stop offset="1" stop-color="#313f47"/></linearGradient><path d="M129.7 0h30.4L0 173v-30z" fill="url(#B)"/><linearGradient id="C" gradientUnits="userSpaceOnUse" x1="320" y1="157.689" x2="142.393" y2="157.689"><stop offset=".129" stop-color="#2b373e"/><stop offset=".283" stop-color="#2d3940" stop-opacity=".876"/><stop offset="1" stop-color="#313f47" stop-opacity=".3"/></linearGradient><path d="M231.9 255.4h-89.5L320 60v99z" fill="url(#C)"/><linearGradient id="D" gradientUnits="userSpaceOnUse" x1="157.739" y1="59.271" x2="289.281" y2="59.271"><stop offset=".134" stop-color="#2b373e"/><stop offset=".288" stop-color="#2d3940"/><stop offset="1" stop-color="#313f47"/></linearGradient><path d="M235.4 0h53.9L179.6 118.5l-21.9-34.1z" fill="url(#D)"/><linearGradient id="E" gradientUnits="userSpaceOnUse" x1="150.107" y1="55.816" x2="253.404" y2="55.816"><stop offset=".129" stop-color="#2b373e"/><stop offset=".283" stop-color="#2d3940"/><stop offset="1" stop-color="#313f47"/></linearGradient><path d="M235.4 0h18L150.1 111.6l7.6-27.2z" fill="url(#E)"/><linearGradient id="F" gradientUnits="userSpaceOnUse" x1="0" y1="39.5" x2="70.312" y2="39.5"><stop offset=".634" stop-color="#313f47" stop-opacity=".1"/><stop offset="1" stop-color="#313f47"/></linearGradient><path d="M70.3 0L0 79V13L10 0z" fill="url(#F)"/><linearGradient id="G" gradientUnits="userSpaceOnUse" x1="320" y1="157.689" x2="138.808" y2="157.689"><stop offset=".129" stop-color="#2b373e"/><stop offset=".283" stop-color="#2d3940"/><stop offset="1" stop-color="#313f47"/></linearGradient><path d="M169.4 255.4h-30.6L320 60v36z" fill="url(#G)"/><linearGradient id="H" gradientUnits="userSpaceOnUse" x1="299.489" y1="164.85" x2="111.768" y2="164.85"><stop offset=".129" stop-color="#2b373e"/><stop offset=".283" stop-color="#2d3940"/><stop offset="1" stop-color="#313f47"/></linearGradient><path d="M142.4 255.4h-30.6L278.6 74.3l20.9 15.1z" fill="url(#H)"/></svg>